# xmcd
#
# Track frame offsets:
#	150
#	13823
#	28377
#	42620
#	56833
#	69370
#	82086
#	96312
#	107852
#	119671
#	133664
#	145680
#	156752
#	171448
#	186359
#	200715
#	212660
#	223734
#	238311
#	250462
#	260804
#	272567
#	287100
#	296341
#	308904
#
# Disc length: 4269 seconds
#
# Revision: 1
# Processed by: cddbd v1.5.1PL2 Copyright (c) Steve Scherf et al.
# Submitted via: audiograbber 1.83.01
#
DISCID=a310ab19
DTITLE=Various Artist - 100 Chartbusters [CD 2/4)
DYEAR=2002
DGENRE=Undefined
TTITLE0=Irene Dunne   -  Smoke Gets In Your Eyes 
TTITLE1=Gracie Fields  - Isle Of Capri
TTITLE2=Ethel Merman - I Get A Kick Out Of You 
TTITLE3=Gracie Fields  - Red Sails In The Sunset
TTITLE4=Milton Brown - Mama Don't Allow It 
TTITLE5=Harry Roy  - Goody Goody
TTITLE6=Bing Crosby  - Pennies From Heaven
TTITLE7=Milton Brown - Keep A Knockin' 
TTITLE8=Mills Brothers  - Caravan
TTITLE9=George Formby - Leaning On A Lamp-Post 
TTITLE10=Shelton Brothers - Aura Lee 
TTITLE11=Andrews Sisters  - Oh Ma - Ma
TTITLE12=Artie Shaw - Begin The Beguine 
TTITLE13=Bob Wills - San Antonio Rose
TTITLE14=Helen Ward  - And The Angels Sing
TTITLE15=Gene Autry - Blueberry Hill 
TTITLE16=Deanna Durbin   - Amapola
TTITLE17=Frank Sinatra   - Fools Rush In
TTITLE18=Dorothy Carless  - You Must Have Been A Beautiful Baby
TTITLE19=Gene Autry   - El Rancho Grande
TTITLE20=Walkers&Sullivan  - When My Blue Moon Turns To Gold Again
TTITLE21=Mel Thorme   - Where Or When
TTITLE22=Gene Autry - That Silver-Haired Daddy Of Mine 
TTITLE23=Al Dexter - Pistol Packin' Mama 
TTITLE24=Judy Garland  - For Me And My Gal
EXTD=
EXTT0=
EXTT1=
EXTT2=
EXTT3=
EXTT4=
EXTT5=
EXTT6=
EXTT7=
EXTT8=
EXTT9=
EXTT10=
EXTT11=
EXTT12=
EXTT13=
EXTT14=
EXTT15=
EXTT16=
EXTT17=
EXTT18=
EXTT19=
EXTT20=
EXTT21=
EXTT22=
EXTT23=
EXTT24=
PLAYORDER=
